<svg width="22.510071" height="22.547607" viewBox="0 0 22.5101 22.5476" fill="none" xmlns="http://www.w3.org/2000/svg" xmlns:xlink="http://www.w3.org/1999/xlink">
	<desc>
			Created with Pixso.
	</desc>
	<defs/>
	<path id="Vector" d="M22.43 6.65C22.42 5.7 22.24 4.77 21.91 3.88C21.32 2.37 20.13 1.17 18.62 0.59C17.74 0.26 16.82 0.08 15.89 0.06C14.68 0.01 14.3 0 11.25 0C8.2 0 7.81 0 6.61 0.06C5.68 0.08 4.75 0.26 3.88 0.59C2.37 1.17 1.17 2.37 0.59 3.88C0.26 4.75 0.08 5.68 0.07 6.61C0.01 7.82 6.1e-5 8.2 6.1e-5 11.25C6.1e-5 14.3 6.1e-5 14.69 0.07 15.89C0.08 16.82 0.26 17.74 0.59 18.62C1.18 20.13 2.37 21.33 3.88 21.91C4.75 22.25 5.68 22.44 6.61 22.47C7.82 22.53 8.2 22.54 11.25 22.54C14.3 22.54 14.69 22.54 15.89 22.47C16.82 22.45 17.75 22.28 18.62 21.95C20.13 21.36 21.33 20.17 21.91 18.66C22.24 17.78 22.42 16.86 22.44 15.92C22.49 14.72 22.51 14.34 22.51 11.29C22.5 8.23 22.5 7.85 22.43 6.65ZM11.24 17.02C8.05 17.02 5.46 14.43 5.46 11.24C5.46 8.05 8.05 5.46 11.24 5.46C14.43 5.46 17.02 8.05 17.02 11.24C17.02 14.43 14.43 17.02 11.24 17.02ZM17.25 6.6C16.5 6.6 15.9 6 15.9 5.25C15.9 4.51 16.5 3.9 17.25 3.9C17.99 3.9 18.6 4.51 18.6 5.25C18.6 6 17.99 6.6 17.25 6.6Z" fill="#64646A" fill-opacity="1.000000" fill-rule="nonzero"/>
	<path id="Vector" d="M15 11.24C15 13.32 13.31 15 11.24 15C9.17 15 7.49 13.32 7.49 11.24C7.49 9.17 9.17 7.49 11.24 7.49C13.31 7.49 15 9.17 15 11.24Z" fill="#64646A" fill-opacity="1.000000" fill-rule="evenodd"/>
</svg>
