<svg width="22.756256" height="22.717529" viewBox="0 0 22.7563 22.7175" fill="none" xmlns="http://www.w3.org/2000/svg" xmlns:xlink="http://www.w3.org/1999/xlink">
	<desc>
			Created with Pixso.
	</desc>
	<defs/>
	<path id="Vector" d="M5.47 2.73C5.47 4.24 4.24 5.46 2.73 5.46C1.22 5.46 0 4.24 0 2.73C0 1.22 1.22 0 2.73 0C4.24 0 5.47 1.22 5.47 2.73Z" fill="#64646A" fill-opacity="1.000000" fill-rule="evenodd"/>
	<path id="Vector" d="M8.05 7.54L8.05 22.71L12.76 22.71L12.76 15.21C12.76 13.23 13.13 11.31 15.59 11.31C18.01 11.31 18.04 13.57 18.04 15.33L18.04 22.71L22.75 22.71L22.75 14.39C22.75 10.3 21.87 7.16 17.09 7.16C14.8 7.16 13.26 8.42 12.63 9.61L12.57 9.61L12.57 7.54L8.05 7.54ZM0.37 7.54L5.09 7.54L5.09 22.71L0.37 22.71L0.37 7.54Z" fill="#64646A" fill-opacity="1.000000" fill-rule="nonzero"/>
</svg>
