<svg width="25.000015" height="25.000000" viewBox="0 0 25 25" fill="none" xmlns="http://www.w3.org/2000/svg" xmlns:xlink="http://www.w3.org/1999/xlink">
	<desc>
			Created with Pixso.
	</desc>
	<defs/>
	<path id="Vector" d="M20.2 15.47C19.36 15.29 18.7 15.68 18.11 16.02C17.51 16.37 16.36 17.3 15.71 17.06C12.35 15.68 9.19 12.74 7.82 9.36C7.58 8.69 8.5 7.54 8.85 6.93C9.19 6.34 9.57 5.67 9.39 4.82C9.24 4.06 7.2 1.47 6.48 0.76C6.01 0.3 5.52 0.04 5.02 0C3.15 -0.08 1.05 2.42 0.68 3.02C-0.24 4.3 -0.23 6 0.7 8.06C2.94 13.59 11.43 21.95 16.99 24.28C18.01 24.75 18.95 25 19.79 25C20.61 25 21.35 24.77 21.98 24.31C22.46 24.03 25.06 21.83 24.99 19.91C24.95 19.42 24.7 18.93 24.23 18.45C23.53 17.72 20.96 15.63 20.2 15.47Z" fill="#64646A" fill-opacity="1.000000" fill-rule="nonzero"/>
</svg>
