<svg width="24.565002" height="19.952393" viewBox="0 0 24.565 19.9524" fill="none" xmlns="http://www.w3.org/2000/svg" xmlns:xlink="http://www.w3.org/1999/xlink">
	<desc>
			Created with Pixso.
	</desc>
	<defs/>
	<path id="Vector" d="M22.04 4.97C22.05 5.19 22.05 5.4 22.05 5.62C22.05 12.28 16.99 19.95 7.73 19.95C4.88 19.95 2.23 19.12 0 17.69C0.4 17.73 0.79 17.75 1.21 17.75C3.57 17.75 5.73 16.95 7.46 15.6C5.25 15.55 3.39 14.1 2.75 12.11C3.07 12.15 3.38 12.18 3.7 12.18C4.16 12.18 4.61 12.12 5.03 12.01C2.72 11.55 0.99 9.52 0.99 7.07L0.99 7.01C1.67 7.38 2.44 7.62 3.27 7.65C1.91 6.75 1.02 5.2 1.02 3.45C1.02 2.52 1.27 1.66 1.71 0.91C4.19 3.97 7.91 5.96 12.09 6.18C12.01 5.81 11.97 5.42 11.97 5.03C11.97 2.26 14.21 0 17 0C18.45 0 19.76 0.6 20.68 1.59C21.82 1.37 22.91 0.94 23.88 0.37C23.5 1.54 22.71 2.52 21.66 3.14C22.68 3.03 23.66 2.75 24.56 2.36C23.88 3.36 23.02 4.25 22.04 4.97Z" fill="#64646A" fill-opacity="1.000000" fill-rule="nonzero"/>
</svg>
